<svg xmlns="http://www.w3.org/2000/svg" viewBox="0 0 301.1 301.1"><defs><style>.bfac0553-d0d8-46db-8c22-3c278af267ba{stroke:#000;stroke-miterlimit:10;}</style></defs><g id="fe6698c2-d2d0-4541-8d6f-3fa96d94bc2f" data-name="Слой 2"><g id="a01ccbb4-d331-4add-9e1c-32a70c3ad1e5" data-name="svg2"><path id="e3d4c485-b3a3-4d2d-8b30-a83fa17222b8" data-name="path3049-1" class="bfac0553-d0d8-46db-8c22-3c278af267ba" d="M150.5,18.9A131.6,131.6,0,0,1,260.4,223.1c.4,6.7,1.1,20.8-2.2,31.9A150,150,0,0,0,293,197.7c1.4-4.8-.7-8.8-3.9-12.5s-4.7-5.7-4-9.7a6.8,6.8,0,0,1,8-5.4,6.7,6.7,0,0,1,5.4,5.4c1-5.9,0-11.7-4.2-16.2-2.7-2.8-6.9-4.1-6.9-8.8a6.8,6.8,0,0,1,6.8-6.7,6.5,6.5,0,0,1,6.3,4.3c-.1-6.2-1.6-10.7-6.9-14.3-3.7-2.4-7.5-3.2-8.5-8.2a6.8,6.8,0,0,1,12.5-4.8,154.7,154.7,0,0,0-12.8-37.4h0c-2.3-4.6-6.8-6.1-11.7-6.4s-7.4-.7-9.7-4.1a6.8,6.8,0,0,1,9.4-9.4c-3.5-4.9-8.2-8.3-14.4-8.5-3.9-.1-7.8,1.9-11.1-1.4a6.8,6.8,0,0,1,7.5-11c-4.4-4.2-8.6-6.3-15-5.1-4.3.8-7.6,3-11.7.1a6.8,6.8,0,0,1-1.8-9.4,7,7,0,0,1,7.2-2.8A146.3,146.3,0,0,0,197.7,8.1c-4.8-1.4-8.8.7-12.5,3.9s-5.7,4.7-9.7,3.9A6.7,6.7,0,0,1,170.1,8a6.7,6.7,0,0,1,5.4-5.4c-5.9-1-11.7,0-16.2,4.2-2.8,2.7-4.1,6.9-8.8,6.9a6.8,6.8,0,0,1-6.7-6.8A6.8,6.8,0,0,1,148.1.5c-6.2.1-10.7,1.7-14.3,7-2.4,3.6-3.2,7.5-8.2,8.4a6.7,6.7,0,0,1-7.9-5.4,6.8,6.8,0,0,1,3.1-7A150.5,150.5,0,0,0,83.4,16.3h.1c-4.6,2.3-6.1,6.8-6.4,11.7s-.7,7.4-4.1,9.7a6.8,6.8,0,0,1-9.4-9.4c-4.9,3.5-8.3,8.2-8.5,14.4-.1,3.9,1.9,7.8-1.4,11a6.7,6.7,0,0,1-9.6,0,6.8,6.8,0,0,1-1.4-7.5c-4.2,4.4-6.3,8.7-5.1,15.1.8,4.2,3,7.6.1,11.7a6.8,6.8,0,0,1-9.4,1.8,7,7,0,0,1-2.8-7.3A154.2,154.2,0,0,0,8,103.6c-1.3,4.6.8,8.6,4,12.3s4.7,5.7,3.9,9.7A6.7,6.7,0,0,1,8,131a6.7,6.7,0,0,1-5.4-5.4c-1,5.9,0,11.7,4.2,16.2,2.7,2.8,6.9,4.1,6.9,8.7a6.8,6.8,0,0,1-6.8,6.8A6.8,6.8,0,0,1,.5,153c.1,6.2,1.7,10.6,7,14.3,3.6,2.4,7.5,3.2,8.4,8.2a6.7,6.7,0,0,1-5.4,7.9,6.8,6.8,0,0,1-7-3.1,148.4,148.4,0,0,0,12.8,37.3h0c2.3,4.6,6.8,6,11.7,6.4s7.4.7,9.7,4.1a6.8,6.8,0,0,1-9.4,9.4c3.5,4.9,8.2,8.3,14.4,8.5,3.9.1,7.8-1.9,11,1.3a6.7,6.7,0,0,1,0,9.6,6.8,6.8,0,0,1-7.5,1.5c4.4,4.2,8.7,6.3,15.1,5.1,4.2-.8,7.6-3,11.7-.1a6.8,6.8,0,0,1,1.8,9.4,7,7,0,0,1-7.3,2.8,154.2,154.2,0,0,0,36.1,17.5c4.6,1.3,8.6-.9,12.3-4s5.7-4.7,9.7-4a6.8,6.8,0,0,1,5.4,8,6.7,6.7,0,0,1-5.4,5.4c5.9,1,11.7,0,16.2-4.2,2.8-2.7,4.1-6.9,8.7-6.9a6.8,6.8,0,0,1,6.8,6.8,6.5,6.5,0,0,1-4.3,6.3c6.2-.1,10.6-1.6,14.3-7,2.4-3.6,3.2-7.4,8.2-8.4a6.8,6.8,0,0,1,4.8,12.5,148.4,148.4,0,0,0,37.3-12.8h0c4.6-2.3,6.1-6.8,6.4-11.7s.7-7.4,4.1-9.7a6.8,6.8,0,0,1,9.4,9.4c16.7-11.4,19-42.3,4.8-56.3-17-16.6-45.5-12.7-75.6-5.8-27.5,6.3-55.1,15.7-83.5,9.3-26-5.9-39.5-22.8-42.9-40.9-5.5-29.5,15.9-62.3,54.6-56.6,7.5,1.1,15.2,3.9,22.4,7-.8,4.5-1.7,8.9-2.9,13.3-.8,2.7-1.6,2-4.1.8a35.9,35.9,0,0,1-7.4-5.2c-3.4-2.8-7.7-6.2-10.1,1.6-1.9,6.2-3.8,12.6-7.9,18.7-1.5,2.3-3.4,3.1-5.1,2.9a22.1,22.1,0,0,1-6.2-4.5,8.6,8.6,0,0,0,1.6,5.1,14,14,0,0,1-6.5-1.2,12.1,12.1,0,0,0,4.5,5.2,26,26,0,0,1-10.4,0A24.6,24.6,0,0,0,74.5,171a61.6,61.6,0,0,1-7.8,2.9,19.6,19.6,0,0,0,13.6-.6c.5,1.7-.1,3.8-.6,5.4a11.9,11.9,0,0,0,7.3-8.4c.5-1.7.2-3.7,1.5-5.2,3.5-4.3,7.4-8.3,10.1-13.7,1-2,1.9-3.3,4.5-.9s6.5,4.4,9.7,6.2,5.2,1.6,7.7-1.4a168.5,168.5,0,0,0,13.3-17.9c21.3,10.2,47.8,20.3,75.9,3.6,7.4-4.3,14.2-9.2,19.5-15,1.9,4.7,4.2,9.2,6.4,13.5s5.2,4.8,8.4,3.3c6.3-2.9,12.6-7.6,17.9-8.2a14.6,14.6,0,0,0,7.2-.1,34.1,34.1,0,0,0,7.2-3.3,30.2,30.2,0,0,1-5.2-1.2,19.9,19.9,0,0,0,5.8-4.8,28.4,28.4,0,0,1-6.4,1c1.1-1.6,3.1-3.2,4.4-5.6a41,41,0,0,0-6.4,2.7,22.3,22.3,0,0,1,1.7-6.5,24.9,24.9,0,0,0-6.4,6.2c-1.1-1.7-1.3-3.9-1.3-6.5-2.1,2.4-3,6.4-3.1,9.2s.2,3.8-1.2,4.2c-4,1.3-8.3,1.6-12.5,2.8-1.4.4-2.4-.7-2.7-2.5-1.2-7.8-3.3-12.6-5.8-16.5a40.3,40.3,0,0,0,3.4-15.1,2.1,2.1,0,0,1,2.1-2.3c9-1.2,9.5-12.6,10.8-21.8.5-3.5-2.5-7.5-7.4-4.8-8.1,4.6-19.7,6.6-18.6,15.6a1.9,1.9,0,0,1-1.9,2.3c-4.7,0-9,3.7-13.5,8.1-5.5-.4-10.8-.6-16.7,1.7-1.9.8-3.8-.4-3-2.7,1.5-4.4,1-8.5,1.6-12.8.4-2.3,0-2.1,2.2-2.1s6.2-.5,8.7-3.1a14.3,14.3,0,0,1-5-.6,26,26,0,0,0,5-3.9,53.7,53.7,0,0,1-5.7-.1c.6-1.2,2.9-3.3,3.9-4.7-1.8.4-4.8.9-6.3,1.9.3-1.6,1.4-3.4,2-5a36,36,0,0,0-6,4.8,10.9,10.9,0,0,1-.6-4.5,24.3,24.3,0,0,0-3.7,6.9c-.5,2,.3,4,0,5.8-.8,7.1-4.2,13.4-6.1,20-1,3.6.6,6.9,4.6,8.1s6-.3,8.2,1.4a3.2,3.2,0,0,1,.9,2.4,25,25,0,0,1-5.2,1.9c-20.1,4.7-36.4,2.3-49.9-1.5,2-8.5,3.4-17.1,2-25.5-.7-4.2-4.4-4-7.2-3.4a141.4,141.4,0,0,0-16.5,4c-3.7,1.3-4.9.3-5.9-2.5-1.8-5.1-5.4-7.8-7.5-11.1-.8-1.3-.8-2.7-1.2-3.8a12.5,12.5,0,0,0-7.3-7.6,13.4,13.4,0,0,1,1.4,6.2,14.1,14.1,0,0,0-11.1-3.2,13.2,13.2,0,0,1,4.6,3.4,15.8,15.8,0,0,0-7.2,1.7A21.2,21.2,0,0,1,92.7,70c-2.8.6-5.5,2.3-6.6,4a16.3,16.3,0,0,1,6.6-.3,8.8,8.8,0,0,0-3.6,4.2c2.9-1.5,5.3-1.1,8.3-1.9s5,.1,5.8,2.7,2.8,7.1,4.1,10.5,2.8,5,5,5.3c6.2.8,12.5-.9,18.7-3-2.7,4-4.5,8.8-6,13-14.6-4.5-29.9-7.4-45.3-4.2-36.5,7.5-59.7,47.6-52,81.3C32.1,201,50.1,223.4,81.3,230s58.2-5.4,87.1-12.1,57.6-10.3,68.4,5.4,1,26.9-11,35.3A131.7,131.7,0,1,1,150.5,18.9Z"/></g></g></svg>